<?xml version="1.0" standalone="no"?>
<!DOCTYPE svg PUBLIC "-//W3C//DTD SVG 20010904//EN"
 "http://www.w3.org/TR/2001/REC-SVG-20010904/DTD/svg10.dtd">
<svg version="1.0" xmlns="http://www.w3.org/2000/svg"
 width="240.000000pt" height="240.000000pt" viewBox="0 0 240.000000 240.000000"
 preserveAspectRatio="xMidYMid meet">
<metadata>
Created by potrace 1.11, written by Peter Selinger 2001-2013
</metadata>
<g transform="translate(0.000000,240.000000) scale(0.100000,-0.100000)"
fill="#000000" stroke="none">
<path d="M1760 2276 c-85 -28 -135 -55 -192 -105 -147 -130 -190 -342 -104
-516 20 -40 36 -85 36 -100 0 -33 -33 -146 -61 -212 l-19 -45 27 7 c16 4 35 8
43 10 42 8 161 51 204 72 40 20 57 24 90 18 23 -4 75 -9 117 -11 253 -10 475
174 496 411 19 220 -129 418 -360 478 -82 22 -199 19 -277 -7z m186 -271 c30
-70 29 -69 119 -80 28 -4 54 -9 58 -12 5 -3 -17 -30 -48 -59 -31 -29 -54 -57
-52 -61 3 -5 8 -26 11 -48 3 -22 9 -53 12 -69 3 -15 2 -27 -2 -25 -5 2 -38 19
-73 37 l-63 33 -69 -36 c-76 -40 -75 -41 -56 52 l14 63 -54 52 c-29 29 -53 56
-53 59 0 3 33 10 73 15 l72 9 35 67 c19 38 38 68 41 68 3 0 19 -29 35 -65z"/>
<path d="M785 1886 c-161 -39 -275 -163 -302 -326 -9 -57 -10 -142 -2 -185 4
-22 10 -58 13 -79 11 -66 61 -206 115 -315 35 -71 51 -117 51 -143 0 -127
-145 -237 -410 -312 -212 -60 -246 -104 -250 -328 l-1 -98 902 0 902 0 -6 122
c-3 78 -10 136 -20 158 -31 70 -88 110 -202 139 -273 71 -435 188 -435 317 0
25 19 79 55 155 171 363 171 635 0 800 -94 92 -263 131 -410 95z"/>
</g>
</svg>
